<svg class="svg-icon" style="width: 1em;height: 1em;vertical-align: middle;fill: currentColor;overflow: hidden;" viewBox="0 0 1024 1024" version="1.1" xmlns="http://www.w3.org/2000/svg"><path d="M512 813.88c-61.4 0-124.93-15.33-188.83-45.55-50.27-23.78-100.91-56.8-150.52-98.17C88.71 600.18 37 531 34.84 528.06a27 27 0 0 1 0-32.12C37 493 88.71 423.82 172.65 353.84c49.61-41.37 100.25-74.39 150.52-98.17 63.9-30.22 127.43-45.54 188.83-45.54s124.93 15.32 188.83 45.54c50.27 23.78 100.91 56.8 150.52 98.17C935.29 423.82 987 493 989.16 495.94a27 27 0 0 1 0 32.12c-2.16 2.94-53.87 72.12-137.81 142.1-49.61 41.37-100.25 74.39-150.52 98.17-63.9 30.22-127.43 45.55-188.83 45.55zM90.92 512a915.8 915.8 0 0 0 117.19 117.54C279.68 689 390.5 760 512 760s232.32-71 303.89-130.46A915.82 915.82 0 0 0 933.08 512a915.82 915.82 0 0 0-117.19-117.54C744.32 335 633.5 264 512 264s-232.32 71-303.89 130.46A915.14 915.14 0 0 0 90.92 512z" fill="#142E4F" /><path d="M512 689.89c-98.09 0-177.89-79.8-177.89-177.89S413.91 334.11 512 334.11 689.89 413.91 689.89 512 610.09 689.89 512 689.89zM512 388a124 124 0 1 0 124 124 124.11 124.11 0 0 0-124-124z" fill="#FF9600" /></svg>